<?xml version="1.0" encoding="UTF-8" standalone="no"?>
<svg
   width="88"
   height="88"
   viewBox="0 0 88 88"
   fill="none"
   version="1.1"
   id="svg25"
   sodipodi:docname="ball_n4-1.svg"
   xml:space="preserve"
   inkscape:version="1.2.2 (732a01da63, 2022-12-09)"
   xmlns:inkscape="http://www.inkscape.org/namespaces/inkscape"
   xmlns:sodipodi="http://sodipodi.sourceforge.net/DTD/sodipodi-0.dtd"
   xmlns="http://www.w3.org/2000/svg"
   xmlns:svg="http://www.w3.org/2000/svg"><sodipodi:namedview
     id="namedview27"
     pagecolor="#ffffff"
     bordercolor="#000000"
     borderopacity="0.25"
     inkscape:showpageshadow="2"
     inkscape:pageopacity="0.0"
     inkscape:pagecheckerboard="0"
     inkscape:deskcolor="#d1d1d1"
     showgrid="false"
     inkscape:zoom="15.129905"
     inkscape:cx="47.092165"
     inkscape:cy="45.803327"
     inkscape:window-width="1152"
     inkscape:window-height="811"
     inkscape:window-x="-8"
     inkscape:window-y="-8"
     inkscape:window-maximized="1"
     inkscape:current-layer="svg25"
     showguides="true"><sodipodi:guide
       position="56.180127,41.469636"
       orientation="0,-1"
       id="guide222"
       inkscape:locked="false" /><sodipodi:guide
       position="33.443699,42.527144"
       orientation="1,0"
       id="guide364"
       inkscape:locked="false" /></sodipodi:namedview><g
     filter="url(#filter0_d_1_11100)"
     id="g6"><rect
       x="23"
       y="18.2163"
       width="41.7571"
       height="41.7571"
       rx="20.8785"
       fill="#E3B873"
       id="rect2" /><rect
       x="19"
       y="14.2163"
       width="49.7571"
       height="49.7571"
       rx="24.8785"
       stroke="white"
       stroke-width="8"
       id="rect4" /></g><defs
     id="defs23"><filter
       id="filter0_d_1_11100"
       x="0"
       y="0.216309"
       width="87.7571"
       height="87.7568"
       filterUnits="userSpaceOnUse"
       color-interpolation-filters="sRGB"><feFlood
         flood-opacity="0"
         result="BackgroundImageFix"
         id="feFlood8" /><feColorMatrix
         in="SourceAlpha"
         type="matrix"
         values="0 0 0 0 0 0 0 0 0 0 0 0 0 0 0 0 0 0 127 0"
         result="hardAlpha"
         id="feColorMatrix10" /><feOffset
         dy="5"
         id="feOffset12" /><feGaussianBlur
         stdDeviation="7.5"
         id="feGaussianBlur14" /><feColorMatrix
         type="matrix"
         values="0 0 0 0 0.890196 0 0 0 0 0.721569 0 0 0 0 0.45098 0 0 0 0.15 0"
         id="feColorMatrix16" /><feBlend
         mode="normal"
         in2="BackgroundImageFix"
         result="effect1_dropShadow_1_11100"
         id="feBlend18" /><feBlend
         mode="normal"
         in="SourceGraphic"
         in2="effect1_dropShadow_1_11100"
         result="shape"
         id="feBlend20" /></filter></defs><g
     style="fill:none"
     id="g438"
     transform="translate(32.59965,32.292541)"><path
       d="m 6.10422,14.1323 c -0.972,0 -1.854,-0.258 -2.646,-0.774 -0.792,-0.516 -1.422,-1.266 -1.89,-2.25 -0.456,-0.996 -0.684001,-2.178 -0.684001,-3.546 0,-1.368 0.228001,-2.544 0.684001,-3.528 0.468,-0.996 1.098,-1.752 1.89,-2.268 0.792,-0.516 1.674,-0.773996 2.646,-0.773996 0.972,0 1.854,0.257996 2.646,0.773996 0.792,0.516 1.41598,1.272 1.87198,2.268 0.468,0.984 0.702,2.16 0.702,3.528 0,1.368 -0.234,2.55 -0.702,3.546 -0.456,0.984 -1.07998,1.734 -1.87198,2.25 -0.792,0.516 -1.674,0.774 -2.646,0.774 z m 0,-0.36 c 1.38,0 2.07,-2.07 2.07,-6.21 0,-4.14 -0.69,-6.21 -2.07,-6.21 -1.38,0 -2.07,2.07 -2.07,6.21 0,4.14 0.69,6.21 2.07,6.21 z m 10.25858,0.09 v -0.27 l 1.26,-0.36 v -2.7 h -5.13 l -0.36,-0.54 6.75,-8.91 h 1.71 v 8.64 h 1.89 v 0.81 h -1.89 v 2.7 l 1.26,0.36 v 0.27 z m -3.24,-4.14 h 4.5 v -5.94 z"
       fill="#ffffff"
       id="path429" /></g></svg>
