<?xml version="1.0" encoding="UTF-8" standalone="no"?>
<svg
   width="88"
   height="88"
   viewBox="0 0 88 88"
   fill="none"
   version="1.1"
   id="svg25"
   sodipodi:docname="ball_n3-1.svg"
   xml:space="preserve"
   inkscape:version="1.2.2 (732a01da63, 2022-12-09)"
   xmlns:inkscape="http://www.inkscape.org/namespaces/inkscape"
   xmlns:sodipodi="http://sodipodi.sourceforge.net/DTD/sodipodi-0.dtd"
   xmlns="http://www.w3.org/2000/svg"
   xmlns:svg="http://www.w3.org/2000/svg"><sodipodi:namedview
     id="namedview27"
     pagecolor="#ffffff"
     bordercolor="#000000"
     borderopacity="0.25"
     inkscape:showpageshadow="2"
     inkscape:pageopacity="0.0"
     inkscape:pagecheckerboard="0"
     inkscape:deskcolor="#d1d1d1"
     showgrid="false"
     inkscape:zoom="15.129905"
     inkscape:cx="47.092165"
     inkscape:cy="45.803327"
     inkscape:window-width="1152"
     inkscape:window-height="811"
     inkscape:window-x="-8"
     inkscape:window-y="-8"
     inkscape:window-maximized="1"
     inkscape:current-layer="svg25"
     showguides="true"><sodipodi:guide
       position="56.180127,41.469636"
       orientation="0,-1"
       id="guide222"
       inkscape:locked="false" /><sodipodi:guide
       position="33.443699,42.527144"
       orientation="1,0"
       id="guide364"
       inkscape:locked="false" /></sodipodi:namedview><g
     filter="url(#filter0_d_1_11100)"
     id="g6"><rect
       x="23"
       y="18.2163"
       width="41.7571"
       height="41.7571"
       rx="20.8785"
       fill="#E3B873"
       id="rect2" /><rect
       x="19"
       y="14.2163"
       width="49.7571"
       height="49.7571"
       rx="24.8785"
       stroke="white"
       stroke-width="8"
       id="rect4" /></g><defs
     id="defs23"><filter
       id="filter0_d_1_11100"
       x="0"
       y="0.216309"
       width="87.7571"
       height="87.7568"
       filterUnits="userSpaceOnUse"
       color-interpolation-filters="sRGB"><feFlood
         flood-opacity="0"
         result="BackgroundImageFix"
         id="feFlood8" /><feColorMatrix
         in="SourceAlpha"
         type="matrix"
         values="0 0 0 0 0 0 0 0 0 0 0 0 0 0 0 0 0 0 127 0"
         result="hardAlpha"
         id="feColorMatrix10" /><feOffset
         dy="5"
         id="feOffset12" /><feGaussianBlur
         stdDeviation="7.5"
         id="feGaussianBlur14" /><feColorMatrix
         type="matrix"
         values="0 0 0 0 0.890196 0 0 0 0 0.721569 0 0 0 0 0.45098 0 0 0 0.15 0"
         id="feColorMatrix16" /><feBlend
         mode="normal"
         in2="BackgroundImageFix"
         result="effect1_dropShadow_1_11100"
         id="feBlend18" /><feBlend
         mode="normal"
         in="SourceGraphic"
         in2="effect1_dropShadow_1_11100"
         result="shape"
         id="feBlend20" /></filter></defs><g
     style="fill:none"
     id="g401"
     transform="translate(33.431265,32.358635)"><path
       d="m 5.23605,14.1323 c -0.972,0 -1.854,-0.258 -2.646,-0.774 -0.792,-0.516 -1.422,-1.266 -1.889995,-2.25 -0.456,-0.996 -0.6840003,-2.178 -0.6840003,-3.546 0,-1.368 0.2280003,-2.544 0.6840003,-3.528 0.467995,-0.996 1.097995,-1.752 1.889995,-2.268 0.792,-0.516 1.674,-0.773996 2.646,-0.773996 0.972,0 1.854,0.257996 2.64601,0.773996 0.792,0.516 1.416,1.272 1.872,2.268 0.46804,0.984 0.70204,2.16 0.70204,3.528 0,1.368 -0.234,2.55 -0.70204,3.546 -0.456,0.984 -1.08,1.734 -1.872,2.25 -0.79201,0.516 -1.67401,0.774 -2.64601,0.774 z m 0,-0.36 c 1.38,0 2.07001,-2.07 2.07001,-6.21 0,-4.14 -0.69001,-6.21 -2.07001,-6.21 -1.38,0 -2.07,2.07 -2.07,6.21 0,4.14 0.69,6.21 2.07,6.21 z m 10.34855,0.36 c -0.828,0 -1.536,-0.114 -2.124,-0.342 -0.576,-0.228 -1.014,-0.522 -1.314,-0.882 -0.288,-0.36 -0.432,-0.732 -0.432,-1.116 0,-0.408 0.12,-0.732 0.36,-0.972 0.252,-0.252 0.582,-0.378 0.99,-0.378 0.096,0 0.192,0.012 0.288,0.036 0.096,0.012 0.162,0.018 0.198,0.018 l 0.234,0.036 v 2.88 c 0.012,0 0.138,0.048 0.378,0.144 0.312,0.084 0.666,0.126 1.062,0.126 0.84,0 1.482,-0.252 1.926,-0.756 0.456,-0.516 0.684,-1.284 0.684,-2.304 0,-1.044 -0.222,-1.83 -0.666,-2.358 -0.432,-0.528 -1.02,-0.792 -1.764,-0.792 h -0.9 v -0.45 h 0.9 c 0.54,0 0.99,-0.24 1.35,-0.72 0.36,-0.48 0.54,-1.17 0.54,-2.07 0,-0.9 -0.186,-1.59 -0.558,-2.07 -0.372,-0.48 -0.846,-0.72 -1.422,-0.72 -0.312,0 -0.612,0.048 -0.9,0.144 -0.036,0.012 -0.156,0.054 -0.36,0.126 v 2.88 l -0.234,0.054 c -0.192,0.024 -0.354,0.036 -0.486,0.036 -0.408,0 -0.738,-0.12 -0.99,-0.36 -0.24,-0.252 -0.36,-0.582 -0.36,-0.99 0,-0.372 0.144,-0.738 0.432,-1.098 0.288,-0.36 0.708,-0.654 1.26,-0.882 0.564,-0.24 1.23,-0.359996 1.998,-0.359996 1.008,0 1.86,0.149996 2.556,0.449996 0.708,0.288 1.236,0.678 1.584,1.17 0.36,0.492 0.54,1.032 0.54,1.62 0,0.684 -0.174,1.23 -0.522,1.638 -0.348,0.396 -0.804,0.714 -1.368,0.954 -0.552,0.216 -1.182,0.342 -1.89,0.378 v 0.09 c 0.792,0.036 1.512,0.174 2.16,0.414 1.44,0.576 2.16,1.548 2.16,2.916 0,1.056 -0.438,1.908 -1.314,2.556 -0.864,0.636 -2.196,0.954 -3.996,0.954 z"
       fill="#ffffff"
       id="path392" /></g></svg>
