<?xml version="1.0" encoding="UTF-8" standalone="no"?>
<svg
   width="88"
   height="88"
   viewBox="0 0 88 88"
   fill="none"
   version="1.1"
   id="svg25"
   sodipodi:docname="ball_n2-02.svg"
   xml:space="preserve"
   inkscape:version="1.2.2 (732a01da63, 2022-12-09)"
   xmlns:inkscape="http://www.inkscape.org/namespaces/inkscape"
   xmlns:sodipodi="http://sodipodi.sourceforge.net/DTD/sodipodi-0.dtd"
   xmlns="http://www.w3.org/2000/svg"
   xmlns:svg="http://www.w3.org/2000/svg"><sodipodi:namedview
     id="namedview27"
     pagecolor="#ffffff"
     bordercolor="#000000"
     borderopacity="0.25"
     inkscape:showpageshadow="2"
     inkscape:pageopacity="0.0"
     inkscape:pagecheckerboard="0"
     inkscape:deskcolor="#d1d1d1"
     showgrid="false"
     inkscape:zoom="2.6818182"
     inkscape:cx="43.813559"
     inkscape:cy="44"
     inkscape:window-width="1152"
     inkscape:window-height="811"
     inkscape:window-x="-8"
     inkscape:window-y="-8"
     inkscape:window-maximized="1"
     inkscape:current-layer="svg25" /><g
     filter="url(#filter0_d_1_11100)"
     id="g6"><rect
       x="23"
       y="18.2163"
       width="41.7571"
       height="41.7571"
       rx="20.8785"
       fill="#E3B873"
       id="rect2" /><rect
       x="19"
       y="14.2163"
       width="49.7571"
       height="49.7571"
       rx="24.8785"
       stroke="white"
       stroke-width="8"
       id="rect4" /></g><defs
     id="defs23"><filter
       id="filter0_d_1_11100"
       x="0"
       y="0.216309"
       width="87.7571"
       height="87.7568"
       filterUnits="userSpaceOnUse"
       color-interpolation-filters="sRGB"><feFlood
         flood-opacity="0"
         result="BackgroundImageFix"
         id="feFlood8" /><feColorMatrix
         in="SourceAlpha"
         type="matrix"
         values="0 0 0 0 0 0 0 0 0 0 0 0 0 0 0 0 0 0 127 0"
         result="hardAlpha"
         id="feColorMatrix10" /><feOffset
         dy="5"
         id="feOffset12" /><feGaussianBlur
         stdDeviation="7.5"
         id="feGaussianBlur14" /><feColorMatrix
         type="matrix"
         values="0 0 0 0 0.890196 0 0 0 0 0.721569 0 0 0 0 0.45098 0 0 0 0.15 0"
         id="feColorMatrix16" /><feBlend
         mode="normal"
         in2="BackgroundImageFix"
         result="effect1_dropShadow_1_11100"
         id="feBlend18" /><feBlend
         mode="normal"
         in="SourceGraphic"
         in2="effect1_dropShadow_1_11100"
         result="shape"
         id="feBlend20" /></filter></defs><g
     style="fill:none"
     id="g204"
     transform="translate(33.278453,32.716882)"><path
       d="m 5.4708,13.7514 c -0.972,0 -1.854,-0.258 -2.646,-0.774 -0.792,-0.516 -1.422,-1.266 -1.890004,-2.25 -0.456,-0.99595 -0.684,-2.17796 -0.684,-3.54596 0,-1.368 0.228,-2.54399 0.684,-3.52799 C 1.4028,2.65745 2.0328,1.90144 2.8248,1.38544 c 0.792,-0.515995 1.674,-0.773995 2.646,-0.773995 0.972,0 1.854,0.258 2.646,0.773995 0.792,0.516 1.416,1.27201 1.872,2.26801 0.468,0.984 0.702,2.15999 0.702,3.52799 0,1.368 -0.234,2.55001 -0.702,3.54596 -0.456,0.984 -1.08,1.734 -1.872,2.25 -0.792,0.516 -1.674,0.774 -2.646,0.774 z m 0,-0.36 c 1.38,0 2.07,-2.07 2.07,-6.20996 0,-4.14 -0.69,-6.209996 -2.07,-6.209996 -1.38,0 -2.07,2.069996 -2.07,6.209996 0,4.13996 0.69,6.20996 2.07,6.20996 z m 6.5686,-0.72 c 0,-0.708 0.138,-1.35 0.414,-1.926 0.288,-0.588 0.636,-1.09795 1.044,-1.52996 0.408,-0.43199 0.942,-0.94199 1.602,-1.53 0.612,-0.54 1.092,-0.98999 1.44,-1.34999 0.348,-0.37201 0.642,-0.78601 0.882,-1.24201 0.24,-0.46799 0.36,-0.97199 0.36,-1.51199 0,-0.79201 -0.192,-1.41001 -0.576,-1.85401 -0.384,-0.444 -0.882,-0.666 -1.494,-0.666 -0.348,0 -0.702,0.048 -1.062,0.144 l -0.378,0.12601 v 2.87999 l -0.234,0.054 c -0.192,0.024 -0.354,0.036 -0.486,0.036 -0.408,0 -0.738,-0.12 -0.99,-0.36 -0.24,-0.25199 -0.36,-0.58199 -0.36,-0.99 0,-0.384 0.144,-0.756 0.432,-1.11599 0.3,-0.36001 0.738,-0.65401 1.314,-0.882005 0.588,-0.228 1.296,-0.342 2.124,-0.342 1.62,0 2.82,0.324 3.6,0.972005 0.78,0.64799 1.17,1.55399 1.17,2.71799 0,0.732 -0.192,1.362 -0.576,1.89 -0.372,0.528 -0.834,0.966 -1.386,1.31401 -0.54,0.348 -1.266,0.744 -2.178,1.188 -0.768,0.372 -1.392,0.702 -1.872,0.99 -0.468,0.276 -0.906,0.61195 -1.314,1.00795 -0.396,0.396 -0.678,0.846 -0.846,1.35 h 6.66 c 0.084,-0.648 0.288,-1.188 0.612,-1.62 0.132,-0.204 0.288,-0.384 0.468,-0.53995 h 0.54 v 3.59995 h -8.91 z"
       fill="#ffffff"
       id="path195" /></g></svg>
