<?xml version="1.0" encoding="UTF-8" standalone="no"?>
<svg
   width="28"
   height="29"
   viewBox="0 0 28 29"
   fill="none"
   version="1.1"
   id="svg12"
   sodipodi:docname="insta_v.svg"
   xml:space="preserve"
   inkscape:version="1.2.2 (732a01da63, 2022-12-09)"
   xmlns:inkscape="http://www.inkscape.org/namespaces/inkscape"
   xmlns:sodipodi="http://sodipodi.sourceforge.net/DTD/sodipodi-0.dtd"
   xmlns="http://www.w3.org/2000/svg"
   xmlns:svg="http://www.w3.org/2000/svg"><defs
     id="defs16" /><sodipodi:namedview
     id="namedview14"
     pagecolor="#ffffff"
     bordercolor="#000000"
     borderopacity="0.25"
     inkscape:showpageshadow="2"
     inkscape:pageopacity="0.0"
     inkscape:pagecheckerboard="0"
     inkscape:deskcolor="#d1d1d1"
     showgrid="false"
     inkscape:zoom="8.137931"
     inkscape:cx="10.137712"
     inkscape:cy="14.5"
     inkscape:window-width="1152"
     inkscape:window-height="811"
     inkscape:window-x="-8"
     inkscape:window-y="-8"
     inkscape:window-maximized="1"
     inkscape:current-layer="svg12" /><circle
     cx="14"
     cy="14.3218"
     r="14"
     fill="#E3B873"
     id="circle10" /><g
     id="g6015"
     transform="translate(-0.0084749,-0.30108107)"><g
       style="fill:none"
       id="g5635"
       transform="translate(7.0084649,6.9016863)"><path
         d="M 10,1.72119 H 4.00002 c -1.65686,0 -3,1.34315 -3,3 v 6.00001 c 0,1.6568 1.34314,3 3,3 H 10 c 1.6569,0 3,-1.3432 3,-3 V 4.72119 c 0,-1.65685 -1.3431,-3 -3,-3 z"
         stroke="#ffffff"
         stroke-width="1.5"
         id="path5626" /></g><g
       style="fill:none"
       id="g5646"
       transform="translate(9.9824798,10.927469)"><path
         d="M 6.40003,3.34337 C 6.47408,3.84272 6.38879,4.3527 6.15629,4.80078 5.92379,5.24886 5.55592,5.61222 5.10501,5.83918 4.6541,6.06613 4.1431,6.14513 3.64471,6.06493 3.14631,5.98473 2.68589,5.74942 2.32894,5.39247 1.97199,5.03552 1.73667,4.5751 1.65648,4.0767 1.57628,3.5783 1.65527,3.06731 1.88223,2.6164 2.10919,2.16548 2.47255,1.79762 2.92063,1.56512 3.3687,1.33262 3.87869,1.24733 4.37803,1.32137 4.88739,1.3969 5.35895,1.63425 5.72305,1.99836 6.08716,2.36246 6.3245,2.83402 6.40003,3.34337 Z"
         stroke="#ffffff"
         stroke-width="1.5"
         stroke-linecap="round"
         stroke-linejoin="round"
         id="path5637" /></g></g></svg>
