<?xml version="1.0" encoding="UTF-8" standalone="no"?>
<!-- Created with Inkscape (http://www.inkscape.org/) -->

<svg
   width="29mm"
   height="29mm"
   viewBox="0 0 29 29"
   version="1.1"
   id="svg5"
   xml:space="preserve"
   inkscape:version="1.2.2 (732a01da63, 2022-12-09)"
   sodipodi:docname="moneypig.svg"
   xmlns:inkscape="http://www.inkscape.org/namespaces/inkscape"
   xmlns:sodipodi="http://sodipodi.sourceforge.net/DTD/sodipodi-0.dtd"
   xmlns="http://www.w3.org/2000/svg"
   xmlns:svg="http://www.w3.org/2000/svg"><sodipodi:namedview
     id="namedview7"
     pagecolor="#ffffff"
     bordercolor="#000000"
     borderopacity="0.25"
     inkscape:showpageshadow="2"
     inkscape:pageopacity="0.0"
     inkscape:pagecheckerboard="0"
     inkscape:deskcolor="#d1d1d1"
     inkscape:document-units="mm"
     showgrid="false"
     showguides="true"
     inkscape:zoom="3.4998993"
     inkscape:cx="66.716205"
     inkscape:cy="61.716061"
     inkscape:window-width="1152"
     inkscape:window-height="811"
     inkscape:window-x="-8"
     inkscape:window-y="-8"
     inkscape:window-maximized="1"
     inkscape:current-layer="layer1"><sodipodi:guide
       position="14.665898,30.285156"
       orientation="1,0"
       id="guide258"
       inkscape:locked="false" /><sodipodi:guide
       position="-2.0411301,14.258504"
       orientation="0,-1"
       id="guide260"
       inkscape:locked="false" /></sodipodi:namedview><defs
     id="defs2"><filter
       id="filter0_d_1_11116"
       x="0.5"
       y="0.44238299"
       width="112"
       height="112"
       filterUnits="userSpaceOnUse"
       color-interpolation-filters="sRGB"><feFlood
         flood-opacity="0"
         result="BackgroundImageFix"
         id="feFlood88" /><feColorMatrix
         in="SourceAlpha"
         type="matrix"
         values="0 0 0 0 0 0 0 0 0 0 0 0 0 0 0 0 0 0 127 0"
         result="hardAlpha"
         id="feColorMatrix90" /><feOffset
         dy="10"
         id="feOffset92" /><feGaussianBlur
         stdDeviation="10"
         id="feGaussianBlur94" /><feColorMatrix
         type="matrix"
         values="0 0 0 0 0.929412 0 0 0 0 0.752941 0 0 0 0 0.470588 0 0 0 0.2 0"
         id="feColorMatrix96" /><feBlend
         mode="normal"
         in2="BackgroundImageFix"
         result="effect1_dropShadow_1_11116"
         id="feBlend98" /><feBlend
         mode="normal"
         in="SourceGraphic"
         in2="effect1_dropShadow_1_11116"
         result="shape"
         id="feBlend100" /></filter></defs><g
     inkscape:label="Слой 1"
     inkscape:groupmode="layer"
     id="layer1"><g
       style="fill:none"
       id="g119"
       transform="matrix(0.26458333,0,0,0.26458333,-0.25192948,2.3869868)"><circle
         cx="56.5"
         cy="46.442402"
         r="36"
         fill="#e3b873"
         id="circle84"
         style="filter:url(#filter0_d_1_11116)" /></g><g
       style="fill:none"
       id="g279"
       transform="matrix(0.26458333,0,0,0.26458333,9.8467194,9.8241183)"><path
         d="m 37.5581,15.4429 v 0 C 37.1069,13.285 36.0951,11.251 34.6321,9.56032 33.2237,7.93272 31.4214,6.65145 29.4118,5.8438 29.0828,4.50777 28.3927,3.13016 27.0386,2.09277 25.7205,1.08301 24.3931,0.888358 24.3338,0.880039 v -9e-6 C 24.1374,0.852736 23.9377,0.909724 23.7872,1.03702 23.6366,1.16435 23.5498,1.34931 23.5498,1.54434 v 3.30354 h -2.2244 c -0.5894,-1.9141 -2.4112,-3.31211 -4.562,-3.31211 -2.1982,0 -4.0538,1.45995 -4.6002,3.43907 C 9.01519,5.40058 6.11974,6.8913 3.96924,9.2048 L 4.00586,9.23884 3.96924,9.2048 C 1.69996,11.6463 0.45,14.8071 0.45,18.1049 c 0,7.3897 3.93387,13.3999 5.1391,15.0654 0.38136,0.5271 1.00543,0.8413 1.6691,0.8413 h 2.71102 c 1.12688,0 2.04578,-0.8941 2.04578,-1.9958 v -0.8017 c 0.6699,0.0977 1.3499,0.1478 2.0307,0.1478 h 6.1071 v 0.6539 c 0,1.1017 0.9189,1.9958 2.0458,1.9958 h 2.9779 c 0.9575,0 1.7991,-0.6624 2.0002,-1.5774 l 0.3202,-1.4565 c 4.1761,-1.0016 7.5355,-3.8581 9.199,-7.5647 h 2.4878 c 0.7522,0 1.3663,-0.5969 1.3663,-1.3334 v -5.2994 c 0,-0.3567 -0.1425,-0.6919 -0.4007,-0.9436 -0.2581,-0.2516 -0.601,-0.39 -0.9655,-0.39 h -10e-5 v 0 0 h -1e-4 v 0 0 h -10e-5 l -1.6243,2e-4 c -5e-4,-0.0013 -8e-4,-0.0026 -0.0011,-0.0039 z m 1.6181,6.5865 h -1e-4 v 0.0415 h -1.965 c 0.3358,-1.0436 0.5427,-2.1395 0.6027,-3.2688 0.0199,-0.3713 -0.2727,-0.6858 -0.6505,-0.7049 -0.3776,-0.0187 -0.7018,0.264 -0.7215,0.6353 -0.2672,5.0226 -3.7557,9.3162 -8.62,10.7664 l 0.8718,-3.9663 c 0.08,-0.3636 -0.1578,-0.7197 -0.528,-0.797 -0.3695,-0.0775 -0.7355,0.1522 -0.8153,0.5153 l -1.5169,6.9015 c -0.0656,0.2986 -0.3415,0.5171 -0.6569,0.5171 h -2.9781 c -0.3716,0 -0.6718,-0.2945 -0.6718,-0.6538 V 29.366 c 0,-0.3718 -0.3088,-0.6711 -0.687,-0.6711 -0.3782,0 -0.6869,0.2993 -0.6869,0.6711 v 0.6538 h -6.1072 c -0.6818,0 -1.3624,-0.056 -2.0307,-0.1648 v -4.4635 c 0,-0.3718 -0.3087,-0.671 -0.6869,-0.671 -0.3782,0 -0.687,0.2992 -0.687,0.671 v 6.6243 c 0,0.3592 -0.3002,0.6538 -0.67184,0.6538 H 7.2582 c -0.22267,0 -0.42157,-0.1001 -0.54713,-0.2738 h -1e-5 C 5.56414,30.8106 1.82391,25.0967 1.82391,18.1049 c 0,-2.9634 1.12301,-5.8038 3.16248,-7.9979 L 4.94977,10.0729 4.98639,10.107 C 6.84008,8.11255 9.30923,6.79836 12.0037,6.3562 c 0.015,0.38798 0.0797,0.77154 0.1913,1.14132 h -0.1876 c -0.3782,0 -0.6869,0.29923 -0.6869,0.67103 0,0.3718 0.3087,0.67103 0.6869,0.67103 h 9.5117 c 0.3783,0 0.687,-0.29923 0.687,-0.67103 0,-0.3718 -0.3087,-0.67103 -0.687,-0.67103 h -0.1876 c 0.1277,-0.42255 0.1943,-0.86301 0.1951,-1.30766 h 2.0232 v 1.31622 c 0,0.3718 0.3087,0.67103 0.6869,0.67103 0.3782,0 0.687,-0.29923 0.687,-0.67103 V 2.43206 c 0.5946,0.2292 1.4193,0.67766 2.1051,1.53313 0.7116,0.88755 1.2768,2.21696 1.2768,4.20343 0,0.37181 0.3088,0.67103 0.687,0.67103 0.3782,0 0.6869,-0.29922 0.6869,-0.67103 0,-0.23788 -0.0079,-0.48774 -0.0259,-0.7456 1.4991,0.72486 2.8442,1.74994 3.9293,3.00388 1.3148,1.5194 2.2239,3.3468 2.6291,5.2846 0.1306,0.6249 0.6929,1.0775 1.3367,1.0774 l 1.6275,-1e-4 z M 16.7633,2.87791 c 1.8701,0 3.3894,1.48319 3.3894,3.30354 0,0.45482 -0.0975,0.9031 -0.2817,1.31622 H 13.6555 C 13.4714,7.0844 13.3737,6.63626 13.3737,6.18145 c 0,-1.82042 1.5194,-3.30354 3.3896,-3.30354 z"
         fill="#ffffff"
         stroke="#ffffff"
         stroke-width="0.1"
         id="path270" /></g><g
       style="fill:none"
       id="g298"
       transform="matrix(0.26458333,0,0,0.26458333,13.405626,13.126264)"><path
         d="M 7.71156,6.51793 C 7.06012,6.07615 6.22008,5.80546 5.45019,5.59314 V 2.51421 c 0.59489,0.07716 1.09821,0.24944 1.4545,0.46222 0.37114,0.22165 0.56862,0.47796 0.56862,0.70642 0,0.3718 0.30875,0.67103 0.68696,0.67103 0.37821,0 0.68695,-0.29923 0.68695,-0.67103 0,-0.65559 -0.37407,-1.24171 -0.98836,-1.68492 C 7.25403,1.56156 6.41271,1.2605 5.45019,1.16269 V 1.13665 c 0,-0.371798 -0.30875,-0.671025 -0.68696,-0.671025 -0.37821,0 -0.68695,0.299227 -0.68695,0.671025 V 1.16269 C 3.11375,1.2605 2.27243,1.56156 1.66761,1.99793 1.05331,2.44114 0.679248,3.02726 0.679248,3.68285 c 0,0.92751 0.471502,1.55841 1.135632,2.00881 0.65143,0.4418 1.49147,0.7125 2.2614,0.92482 V 9.69541 C 3.48139,9.61826 2.97807,9.44597 2.62178,9.23319 2.25063,9.01154 2.05315,8.75524 2.05315,8.52677 c 0,-0.3718 -0.30874,-0.67103 -0.68695,-0.67103 -0.378209,0 -0.686952,0.29923 -0.686952,0.67103 0,0.65559 0.374062,1.24171 0.988362,1.68493 0.60482,0.4364 1.44614,0.7374 2.40867,0.8352 v 0.0261 c 0,0.3718 0.30874,0.671 0.68695,0.671 0.37821,0 0.68696,-0.2992 0.68696,-0.671 V 11.0469 C 6.41271,10.9491 7.25403,10.6481 7.85886,10.2117 8.47315,9.76848 8.84722,9.18236 8.84722,8.52677 8.84722,7.59922 8.3757,6.96832 7.71156,6.51793 Z M 4.07628,2.51421 V 5.21038 C 3.32859,4.97809 2.82483,4.7569 2.50666,4.51552 2.18275,4.26979 2.05315,4.00494 2.05315,3.68285 2.05315,3.45439 2.25063,3.19808 2.62178,2.97643 2.97807,2.76365 3.48139,2.59137 4.07628,2.51421 Z M 6.90466,9.23327 C 6.54836,9.44605 6.04504,9.61833 5.45019,9.69549 V 6.99931 c 0.74769,0.23226 1.25144,0.45345 1.56962,0.69484 0.32391,0.24574 0.4535,0.51061 0.4535,0.8327 0,0.22846 -0.19749,0.48477 -0.56865,0.70642 z"
         fill="#ffffff"
         stroke="#ffffff"
         stroke-width="0.1"
         id="path289" /></g></g></svg>
