<?xml version="1.0" encoding="UTF-8" standalone="no"?>
<svg
   width="33"
   height="32"
   viewBox="0 0 33 32"
   fill="none"
   version="1.1"
   id="svg4"
   sodipodi:docname="note.svg"
   xml:space="preserve"
   inkscape:version="1.2.2 (732a01da63, 2022-12-09)"
   xmlns:inkscape="http://www.inkscape.org/namespaces/inkscape"
   xmlns:sodipodi="http://sodipodi.sourceforge.net/DTD/sodipodi-0.dtd"
   xmlns="http://www.w3.org/2000/svg"
   xmlns:svg="http://www.w3.org/2000/svg"><defs
     id="defs8"><clipPath
       id="clip0_1_11586"><rect
         width="1127"
         height="776"
         fill="white"
         transform="matrix(-1 0 0 1 1127 0.321777)"
         id="rect10362" /></clipPath></defs><sodipodi:namedview
     id="namedview6"
     pagecolor="#ffffff"
     bordercolor="#000000"
     borderopacity="0.25"
     inkscape:showpageshadow="2"
     inkscape:pageopacity="0.0"
     inkscape:pagecheckerboard="0"
     inkscape:deskcolor="#d1d1d1"
     showgrid="false"
     inkscape:zoom="18.065002"
     inkscape:cx="16.55134"
     inkscape:cy="15.997784"
     inkscape:window-width="1152"
     inkscape:window-height="811"
     inkscape:window-x="-8"
     inkscape:window-y="-8"
     inkscape:window-maximized="1"
     inkscape:current-layer="svg4"
     showguides="true"><sodipodi:guide
       position="3.7693981,-15.902768"
       orientation="1,0"
       id="guide11056"
       inkscape:locked="false" /><sodipodi:guide
       position="29.212835,-20.457457"
       orientation="1,0"
       id="guide11058"
       inkscape:locked="false" /></sodipodi:namedview><g
     id="g14051"
     style="fill:#ffffff"><g
       style="fill:#ffffff;stroke:none"
       id="g9064"
       transform="translate(21.538868,25.943748)"><path
         d="M 7.04339,0.834717 H 1.39398 c -0.31185,0 -0.564939,0.245703 -0.564939,0.549673 0,0.30397 0.253089,0.54967 0.564939,0.54967 h 5.64941 c 0.31184,0 0.56494,-0.2457 0.56494,-0.54967 0,-0.30397 -0.2531,-0.549673 -0.56494,-0.549673 z"
         fill="#ffffff"
         id="path9055"
         style="fill:#ffffff;stroke:none" /></g><g
       style="fill:#ffffff;stroke:none"
       id="g9075"
       transform="translate(16.006358,17.629048)"><path
         d="m 0.179626,0.589712 c 0,0.303969 0.253094,0.549668 0.564941,0.549668 H 9.21868 c 0.31185,0 0.56494,-0.245699 0.56494,-0.549668 0,-0.303969 -0.25309,-0.5496729 -0.56494,-0.5496729 H 0.744567 c -0.311847,0 -0.564941,0.2457039 -0.564941,0.5496729 z"
         fill="#ffffff"
         id="path9066"
         style="fill:#ffffff;stroke:none" /></g><g
       style="fill:#ffffff;stroke:none"
       id="g9086"
       transform="translate(12.473845,17.629078)"><path
         d="M 1.32097,0.979943 C 1.42266,0.875505 1.4848,0.732591 1.4848,0.589676 c 0,-0.143464 -0.06214,-0.286379 -0.16383,-0.390267 -0.20903,-0.20337871 -0.59319,-0.20337871 -0.802217,0 -0.10169,0.103888 -0.163834,0.246803 -0.163834,0.390267 0,0.142915 0.062144,0.285829 0.163834,0.390267 0.107338,0.103887 0.254222,0.159407 0.401106,0.159407 0.146881,0 0.293771,-0.05552 0.401111,-0.159407 z"
         fill="#ffffff"
         id="path9077"
         style="fill:#ffffff;stroke:none" /></g><g
       style="fill:#ffffff;stroke:none"
       id="g9097"
       transform="translate(18.837698,21.782745)"><path
         d="m 0.705521,0.986928 c 0,0.303972 0.253093,0.549672 0.564939,0.549672 h 8.47411 c 0.31183,0 0.56493,-0.2457 0.56493,-0.549672 0,-0.303969 -0.2531,-0.549672 -0.56493,-0.549672 H 1.27046 c -0.311846,0 -0.564939,0.245703 -0.564939,0.549672 z"
         fill="#ffffff"
         id="path9088"
         style="fill:#ffffff;stroke:none" /></g><g
       style="fill:#ffffff;stroke:none"
       id="g9108"
       transform="translate(2.9413253,21.782725)"><path
         d="m 1.44575,1.53662 c 0.14689,0 0.29377,-0.06046 0.40111,-0.15941 C 1.94855,1.27278 2.0107,1.12986 2.0107,0.986947 2.0107,0.843482 1.94855,0.700566 1.84686,0.602175 1.63783,0.393299 1.25367,0.3933 1.04465,0.596679 0.942957,0.700567 0.880814,0.843482 0.880814,0.986947 c 0,0.142913 0.062143,0.285833 0.163836,0.390263 0.10734,0.09895 0.24857,0.15941 0.4011,0.15941 z"
         fill="#ffffff"
         id="path9099"
         style="fill:#ffffff;stroke:none" /></g><g
       style="fill:#ffffff;stroke:none"
       id="g9119"
       transform="translate(27.538878,17.629078)"><path
         d="m 1.04338,1.13935 c 0.14688,0 0.29377,-0.05552 0.4011,-0.159407 0.10734,-0.104438 0.16384,-0.247352 0.16384,-0.390267 0,-0.143464 -0.0565,-0.286379 -0.16384,-0.390267 -0.21467,-0.20337871 -0.593181,-0.20337871 -0.802208,0 -0.101689,0.103888 -0.163833,0.246803 -0.163833,0.390267 0,0.142915 0.062144,0.285829 0.163833,0.390267 C 0.74961,1.08383 0.896494,1.13935 1.04338,1.13935 Z"
         fill="#ffffff"
         id="path9110"
         style="fill:#ffffff;stroke:none" /></g><g
       style="fill:#ffffff;stroke:none"
       id="g9130"
       transform="translate(2.9413253,25.943748)"><path
         d="M 15.5693,0.834717 H 1.44575 c -0.31184,0 -0.564936,0.245703 -0.564936,0.549673 0,0.30397 0.253096,0.54967 0.564936,0.54967 H 15.5693 c 0.3118,0 0.5649,-0.2457 0.5649,-0.54967 0,-0.30397 -0.2531,-0.549673 -0.5649,-0.549673 z"
         fill="#ffffff"
         id="path9121"
         style="fill:#ffffff;stroke:none" /></g><g
       style="fill:#ffffff;stroke:none"
       id="g10999"
       transform="translate(-0.17495311,0.35429192)"><path
         d="M 24.5967,2.19869 C 24.334,0.945985 23.1934,0 21.829,0 c -0.3118,0 -0.5649,0.245703 -0.5649,0.549672 0,0.303968 0.2531,0.549668 0.5649,0.549668 0.9345,0 1.6949,0.73986 1.6949,1.64902 0,0.90916 -0.7604,1.64902 -1.6949,1.64902 -0.3118,0 -0.5649,0.2457 -0.5649,0.54967 0,0.30397 0.2531,0.54967 0.5649,0.54967 1.3638,0 2.505,-0.94599 2.7677,-2.19869 H 31.998 V 8.24508 H 1.49118 V 3.29803 h 7.90917 1.69485 c 0.3118,0 0.5649,-0.2457 0.5649,-0.54967 0,-0.30397 -0.2531,-0.54967 -0.5649,-0.54967 h -1.026 c 0.2339,-0.63872 0.8554,-1.09935 1.5909,-1.09935 0.9344,0 1.6948,0.73986 1.6948,1.64902 0,0.90916 -0.7604,1.64902 -1.6948,1.64902 -0.3118,0 -0.5649,0.2457 -0.5649,0.54967 0,0.30397 0.2531,0.54967 0.5649,0.54967 1.5576,0 2.8247,-1.23292 2.8247,-2.74836 C 14.4848,1.23291 13.2177,0 11.6601,0 10.2963,0 9.15516,0.945985 8.89247,2.19869 H 0.361298 V 9.34442 31.3313 H 33.1279 V 9.34442 2.19869 Z M 31.998,30.232 H 1.49118 V 9.34442 H 31.998 Z"
         fill="#ffffff"
         id="path10990"
         style="fill:#ffffff;stroke:none" /></g><g
       style="fill:#ffffff;stroke:none"
       id="g11010"
       transform="translate(17.374132,0.39280499)"><path
         d="m 1.04974,1.09934 c 0.93441,0 1.69482,0.73986 1.69482,1.64902 0,0.90916 -0.76041,1.64902 -1.69482,1.64902 -0.311844,0 -0.564938,0.2457 -0.564938,0.54967 0,0.30397 0.253094,0.54967 0.564938,0.54967 1.55754,0 2.8247,-1.23292 2.8247,-2.74836 C 3.87444,1.23291 2.60728,0 1.04974,0 0.737896,0 0.484802,0.245703 0.484802,0.549672 c 0,0.303968 0.253094,0.549668 0.564938,0.549668 z"
         fill="#ffffff"
         id="path11001"
         style="fill:#ffffff;stroke:none" /></g><g
       style="fill:#ffffff;stroke:none"
       id="g11021"
       transform="translate(13.372138,0.35429192)"><path
         d="m 1.43939,1.09934 c 0.93441,0 1.69482,0.73986 1.69482,1.64902 0,0.90916 -0.76041,1.64902 -1.69482,1.64902 -0.31185,0 -0.564939,0.2457 -0.564939,0.54967 0,0.30397 0.253089,0.54967 0.564939,0.54967 1.55754,0 2.82471,-1.23292 2.82471,-2.74836 C 4.2641,1.23291 2.99693,0 1.43939,0 1.12754,0 0.874451,0.245703 0.874451,0.549672 c 0,0.303968 0.253089,0.549668 0.564939,0.549668 z"
         fill="#ffffff"
         id="path11012"
         style="fill:#ffffff;stroke:none" /></g><g
       style="fill:#ffffff;stroke:none"
       id="g11032"
       transform="translate(2.9413253,12.472061)"><path
         d="M 1.44575,1.74168 H 13.8744 c 0.3119,0 0.565,-0.24571 0.565,-0.54967 0,-0.303973 -0.2531,-0.549676 -0.565,-0.549676 H 1.44575 c -0.31184,0 -0.564936,0.245703 -0.564936,0.549676 0,0.30396 0.253096,0.54967 0.564936,0.54967 z"
         fill="#ffffff"
         id="path11023"
         style="fill:#ffffff;stroke:none" /></g><g
       style="fill:#ffffff;stroke:none"
       id="g11043"
       transform="translate(7.4412954,21.782745)"><path
         d="M 9.04338,0.437256 H 0.569274 c -0.311847,0 -0.5649405,0.245703 -0.5649405,0.549672 0,0.303972 0.2530935,0.549672 0.5649405,0.549672 H 9.04338 c 0.31185,0 0.56494,-0.2457 0.56494,-0.549672 0,-0.303969 -0.25309,-0.549672 -0.56494,-0.549672 z"
         fill="#ffffff"
         id="path11034"
         style="fill:#ffffff;stroke:none" /></g><g
       style="fill:#ffffff;stroke:none"
       id="g11054"
       transform="translate(2.9413253,17.629048)"><path
         d="m 1.44575,1.13938 h 5.64941 c 0.31185,0 0.56494,-0.245699 0.56494,-0.549668 0,-0.303969 -0.25309,-0.5496729 -0.56494,-0.5496729 H 1.44575 c -0.31184,0 -0.564936,0.2457039 -0.564936,0.5496729 0,0.303969 0.253096,0.549668 0.564936,0.549668 z"
         fill="#ffffff"
         id="path11045"
         style="fill:#ffffff;stroke:none" /></g></g></svg>
