<?xml version="1.0" encoding="UTF-8" standalone="no"?>
<svg
   width="33"
   height="32"
   viewBox="0 0 33 32"
   fill="none"
   version="1.1"
   id="svg4"
   sodipodi:docname="sqare.svg"
   xml:space="preserve"
   inkscape:version="1.2.2 (732a01da63, 2022-12-09)"
   xmlns:inkscape="http://www.inkscape.org/namespaces/inkscape"
   xmlns:sodipodi="http://sodipodi.sourceforge.net/DTD/sodipodi-0.dtd"
   xmlns="http://www.w3.org/2000/svg"
   xmlns:svg="http://www.w3.org/2000/svg"><defs
     id="defs8" /><sodipodi:namedview
     id="namedview6"
     pagecolor="#ffffff"
     bordercolor="#000000"
     borderopacity="0.25"
     inkscape:showpageshadow="2"
     inkscape:pageopacity="0.0"
     inkscape:pagecheckerboard="0"
     inkscape:deskcolor="#d1d1d1"
     showgrid="false"
     inkscape:zoom="6.3670642"
     inkscape:cx="15.470238"
     inkscape:cy="25.914612"
     inkscape:window-width="1152"
     inkscape:window-height="811"
     inkscape:window-x="-8"
     inkscape:window-y="-8"
     inkscape:window-maximized="1"
     inkscape:current-layer="svg4" /><g
     id="g9026"
     style="fill:#ffffff"><g
       id="g888"
       transform="translate(0.15705825,2.0417573)"
       style="fill:#ffffff"><path
         d="m 3.6681,26.104673 h 0.125 v -0.125 l -1e-5,-23.7587401 1.62588,1.62587 c 0.20305,0.20306 0.53227,0.20306 0.73533,0 0.20305,-0.20305 0.20305,-0.53227 0,-0.73533 L 3.6408,0.59797288 c -0.20305,-0.20305 -0.53227,-0.20305 -0.73533,0 L 0.391976,3.1114729 c -0.203056,0.20306 -0.203056,0.53228 0,0.73533 0.203057,0.20306 0.532275,0.20306 0.735334,0 l 1.62587,-1.62587 v 23.7587401 0.125 h 0.125 z"
         fill="#ffffff"
         stroke="#ffffff"
         stroke-width="0.25"
         id="path2"
         style="fill:#ffffff;stroke:none" /><g
         style="fill:#ffffff;stroke:none"
         id="g177"
         transform="translate(1.9982683,23.090691)"><path
           d="m 0.752197,3.83149 v 0.125 h 0.125 23.883103 l -1.6341,1.62564 c -0.2042,0.20311 -0.2042,0.53268 0,0.73579 0.2038,0.20275 0.534,0.20275 0.7378,0 l 2.5266,-2.5135 c 0.2041,-0.2031 0.2041,-0.53268 0,-0.73579 L 23.864,0.555139 c -0.2038,-0.202751 -0.534,-0.20275 -0.7378,-1e-6 -0.2042,0.203109 -0.2042,0.532682 0,0.735792 l 1.6341,1.62564 h -23.883103 -0.125 v 0.125 z"
           fill="#ffffff"
           stroke="#ffffff"
           stroke-width="0.25"
           id="path168"
           style="fill:#ffffff;stroke:none" /></g></g><g
       style="fill:#ffffff;stroke:none"
       id="g1262"
       transform="translate(2.7676306,0.1988086)"><path
         fill-rule="evenodd"
         clip-rule="evenodd"
         d="M 0.250305,1.38187 C 0.250305,1.17097 0.42854,1 0.648404,1 H 29.3115 c 0.2199,0 0.3981,0.17097 0.3981,0.38187 V 29.0039 c 0,0.2109 -0.1782,0.3819 -0.3981,0.3819 -0.2199,0 -0.3981,-0.171 -0.3981,-0.3819 V 1.76374 H 0.648404 c -0.219864,0 -0.398099,-0.17097 -0.398099,-0.38187 z"
         fill="#ffffff"
         stroke="#ffffff"
         stroke-width="0.5"
         stroke-linecap="round"
         stroke-linejoin="round"
         id="path1253"
         style="fill:#ffffff;stroke:none" /></g><g
       style="fill:#ffffff;stroke:none"
       id="g2725"
       transform="translate(25.856471,18.69468)"><path
         fill-rule="evenodd"
         clip-rule="evenodd"
         d="m 6.16245,1.11568 c 0.15424,0.15424 0.15424,0.40431 0,0.55855 l -4.7395,4.7395 c -0.15424,0.15424 -0.40431,0.15424 -0.558551,0 -0.154241,-0.15424 -0.154241,-0.40432 0,-0.55856 L 5.60389,1.11568 c 0.15424,-0.15424 0.40431,-0.15424 0.55856,0 z"
         fill="#ffffff"
         stroke="#ffffff"
         stroke-width="0.5"
         stroke-linecap="round"
         stroke-linejoin="round"
         id="path2716"
         style="fill:#ffffff;stroke:none" /></g><g
       style="fill:#ffffff;stroke:none"
       id="g3462"
       transform="translate(7.2171566,0.6583399)"><path
         fill-rule="evenodd"
         clip-rule="evenodd"
         d="m 24.3306,1.24727 c 0.1543,0.15424 0.1543,0.40432 0,0.55856 L 1.68638,24.4501 c -0.15424,0.1542 -0.40431,0.1542 -0.55855,0 -0.154244,-0.1543 -0.154244,-0.4043 0,-0.5586 L 23.7721,1.24727 c 0.1542,-0.15424 0.4043,-0.15424 0.5585,0 z"
         fill="#ffffff"
         stroke="#ffffff"
         stroke-width="0.5"
         stroke-linecap="round"
         stroke-linejoin="round"
         id="path3453"
         style="fill:#ffffff;stroke:none" /></g><g
       style="fill:#ffffff;stroke:none"
       id="g3473"
       transform="translate(14.538201,6.7898399)"><path
         fill-rule="evenodd"
         clip-rule="evenodd"
         d="m 17.5939,1.17183 c 0.1543,0.15424 0.1543,0.40432 0,0.55856 L 1.00572,18.3186 c -0.154244,0.1542 -0.404317,0.1542 -0.558558,0 -0.15424,-0.1542 -0.15424,-0.4043 0,-0.5585 L 17.0354,1.17183 c 0.1542,-0.15424 0.4043,-0.15424 0.5585,0 z"
         fill="#ffffff"
         stroke="#ffffff"
         stroke-width="0.5"
         stroke-linecap="round"
         stroke-linejoin="round"
         id="path3464"
         style="fill:#ffffff;stroke:none" /></g><g
       style="fill:#ffffff;stroke:none"
       id="g3484"
       transform="translate(20.545216,13.185165)"><path
         fill-rule="evenodd"
         clip-rule="evenodd"
         d="m 11.5938,1.35909 c 0.1543,0.15424 0.1543,0.40431 0,0.55855 L 1.58824,11.9232 c -0.15424,0.1543 -0.40432,0.1543 -0.55856,0 -0.154239,-0.1542 -0.154239,-0.4043 0,-0.5585 L 11.0353,1.35909 c 0.1542,-0.15424 0.4043,-0.15424 0.5585,0 z"
         fill="#ffffff"
         stroke="#ffffff"
         stroke-width="0.5"
         stroke-linecap="round"
         stroke-linejoin="round"
         id="path3475"
         style="fill:#ffffff;stroke:none" /></g><g
       style="fill:#ffffff;stroke:none"
       id="g3495"
       transform="translate(7.7858223,0.8466868)"><path
         fill-rule="evenodd"
         clip-rule="evenodd"
         d="m 5.46225,0.942341 c 0.15424,0.154239 0.15424,0.404309 0,0.558559 L 1.11772,5.84543 c -0.154244,0.15424 -0.404318,0.15424 -0.558558,0 -0.154241,-0.15424 -0.154241,-0.40432 0,-0.55856 L 4.9037,0.942341 c 0.15424,-0.154241 0.40431,-0.154241 0.55855,0 z"
         fill="#ffffff"
         stroke="#ffffff"
         stroke-width="0.5"
         stroke-linecap="round"
         stroke-linejoin="round"
         id="path3486"
         style="fill:#ffffff;stroke:none" /></g><g
       style="fill:#ffffff;stroke:none"
       id="g3506"
       transform="translate(7.0855666,0.3153318)"><path
         fill-rule="evenodd"
         clip-rule="evenodd"
         d="m 12.0851,1.11391 c 0.1552,0.15325 0.1568,0.40332 0.0035,0.55854 L 1.81975,12.073 C 1.66649,12.2282 1.41642,12.2298 1.2612,12.0766 1.10598,11.9233 1.10439,11.6732 1.25765,11.518 L 11.5265,1.11746 c 0.1533,-0.155215 0.4034,-0.156808 0.5586,-0.00355 z"
         fill="#ffffff"
         stroke="#ffffff"
         stroke-width="0.5"
         stroke-linecap="round"
         stroke-linejoin="round"
         id="path3497"
         style="fill:#ffffff;stroke:none" /></g><g
       style="fill:#ffffff;stroke:none"
       id="g3517"
       transform="translate(7.9539131,0.2714916)"
       inkscape:transform-center-x="5.4970389"
       inkscape:transform-center-y="3.2982234"><path
         fill-rule="evenodd"
         clip-rule="evenodd"
         d="m 17.4084,1.24953 c 0.153,0.15548 0.151,0.40555 -0.0045,0.55854 L 0.947364,18.0013 C 0.791885,18.1543 0.54182,18.1523 0.388828,17.9968 0.235836,17.8414 0.237853,17.5913 0.393332,17.4383 L 16.8499,1.24503 c 0.1555,-0.15299 0.4055,-0.15098 0.5585,0.0045 z"
         fill="#ffffff"
         stroke="#ffffff"
         stroke-width="0.5"
         stroke-linecap="round"
         stroke-linejoin="round"
         id="path3508"
         style="fill:#ffffff;stroke:none" /></g></g></svg>
